<svg width="323" height="255" viewBox="0 0 323 255" fill="none" xmlns="http://www.w3.org/2000/svg">
<rect x="17.3428" y="6.53174" width="238.987" height="30.7848" rx="10" fill="#212121"/>
<path d="M7.26066 63.0881C8.11066 63.0881 8.77066 62.7481 9.18066 62.2781L8.82066 61.9381C8.48066 62.3381 7.90066 62.5881 7.30066 62.5881C6.19066 62.5881 5.43066 61.7881 5.43066 60.6081C5.43066 59.4481 6.18066 58.6281 7.30066 58.6281C7.94066 58.6281 8.47066 58.8981 8.79066 59.2881L9.17066 58.9481C8.70066 58.4081 7.98066 58.1381 7.28066 58.1381C5.87066 58.1381 4.89066 59.1581 4.89066 60.6181C4.89066 62.0681 5.86066 63.0881 7.26066 63.0881ZM10.3083 65.0181H10.8383V61.9781L10.8583 61.9681C11.2083 62.6381 11.8783 63.0881 12.7583 63.0881C14.0883 63.0881 15.1383 62.1181 15.1383 60.6481C15.1383 59.2381 14.1583 58.1381 12.7583 58.1381C11.9283 58.1381 11.2183 58.5681 10.8583 59.2781H10.8383V58.1881H10.3083V65.0181ZM12.6983 62.5881C11.6583 62.5881 10.8283 61.8181 10.8283 60.6581C10.8283 59.5281 11.5683 58.6281 12.6883 58.6281C13.7383 58.6281 14.5883 59.4281 14.5883 60.6581C14.5883 61.7381 13.8283 62.5881 12.6983 62.5881ZM20.5925 60.4881C20.5925 59.1381 19.7125 58.1381 18.4125 58.1381C17.0725 58.1381 16.0625 59.1681 16.0625 60.6081C16.0625 62.0581 17.0525 63.0881 18.4525 63.0881C19.3625 63.0881 19.9925 62.7281 20.4025 62.1781L20.0225 61.8581C19.6825 62.2981 19.1625 62.5881 18.4625 62.5881C17.4025 62.5881 16.6525 61.8381 16.6025 60.7281H20.5825C20.5925 60.6981 20.5925 60.5981 20.5925 60.4881ZM18.4125 58.6281C19.3525 58.6281 19.9625 59.2981 20.0625 60.2881H16.6225C16.7525 59.2881 17.4825 58.6281 18.4125 58.6281ZM26.5076 62.5581H25.6976V58.1881H22.6776C22.6776 58.9881 22.6376 59.7881 22.4976 60.5481C22.3576 61.2781 22.1276 61.9681 21.7476 62.5581H21.0176V64.4281H21.4676L21.5076 63.0381H26.0276L26.0676 64.4281H26.5076V62.5581ZM22.3076 62.5581C22.6376 62.0381 22.8676 61.4081 22.9976 60.7081C23.1376 60.0081 23.1776 59.2781 23.1876 58.6681H25.1676V62.5581H22.3076ZM29.4091 63.0881C30.2891 63.0881 30.9591 62.6281 31.3091 61.9381L31.3291 61.9481V63.0381H31.8391V58.1881H31.3091V59.2881H31.2991C30.9391 58.5681 30.2291 58.1381 29.4091 58.1381C28.0091 58.1381 27.0191 59.2381 27.0191 60.6481C27.0191 62.1181 28.0791 63.0881 29.4091 63.0881ZM29.4691 62.5881C28.3291 62.5881 27.5691 61.7381 27.5691 60.6581C27.5691 59.4281 28.4191 58.6281 29.4791 58.6281C30.5691 58.6281 31.3291 59.5281 31.3291 60.6581C31.3291 61.8181 30.4891 62.5881 29.4691 62.5881Z" fill="#595959"/>
<circle cx="19.7723" cy="21.9241" r="15.3924" fill="#DE131E"/>
<ellipse cx="250.659" cy="22.3291" rx="14.5823" ry="14.9873" fill="#DE131E"/>
<path d="M17.2503 28H22.7303V0.519999H18.3703L10.0903 6.48L12.6503 10.52L17.2503 7.04V28Z" fill="white"/>
<path d="M156.934 28.2021H159.614V25.9421H161.454V23.6221H159.614V14.4621H157.434L151.134 24.2221V25.9421H156.934V28.2021ZM154.094 23.7421L157.114 18.8621V23.7421H154.094Z" fill="white"/>
<path d="M156.41 91.8604H159.15V78.1204H156.97L152.83 81.1004L154.11 83.1204L156.41 81.3804V91.8604ZM167.014 92.0404C170.354 92.0404 172.374 89.2004 172.374 85.0004C172.374 80.5404 170.194 77.9604 167.014 77.9604C163.694 77.9604 161.654 80.8004 161.654 85.0004C161.654 89.4404 163.834 92.0404 167.014 92.0404ZM167.014 89.5004C165.414 89.5004 164.434 87.7604 164.434 85.0004C164.434 82.0804 165.434 80.4804 167.014 80.4804C168.654 80.4804 169.594 82.2004 169.594 85.0004C169.594 87.9204 168.614 89.5004 167.014 89.5004Z" fill="white"/>
<path d="M156.41 146H159.15V132.26H156.97L152.83 135.24L154.11 137.26L156.41 135.52V146ZM167.314 137.2C166.434 137.2 165.554 137.42 164.814 137.82L164.774 137.78C165.574 135.86 167.234 134.72 169.694 134.02L168.894 131.82C164.574 132.62 161.634 136.2 161.634 140.6C161.634 143.96 163.754 146.18 166.574 146.18C169.394 146.18 171.534 144.32 171.534 141.62C171.534 138.8 169.634 137.2 167.314 137.2ZM166.694 143.72C165.354 143.72 164.234 142.6 164.234 140.88V140.72C164.794 140.02 165.654 139.48 166.614 139.48C167.994 139.48 168.874 140.36 168.874 141.56C168.874 142.74 168.014 143.72 166.694 143.72Z" fill="white"/>
<path d="M153.33 200.431H162.27V197.971H157.33L157.31 197.911L159.87 195.231C161.65 193.391 162.15 192.171 162.15 190.611C162.15 188.071 160.07 186.551 157.77 186.551C155.47 186.551 154.03 187.691 153.23 189.151L155.17 190.531C155.77 189.531 156.59 189.071 157.57 189.071C158.63 189.071 159.39 189.871 159.39 190.931C159.39 192.031 158.67 192.951 157.55 194.111L153.29 198.651L153.33 200.431ZM163.916 200.431H172.856V197.971H167.916L167.896 197.911L170.456 195.231C172.236 193.391 172.736 192.171 172.736 190.611C172.736 188.071 170.656 186.551 168.356 186.551C166.056 186.551 164.616 187.691 163.816 189.151L165.756 190.531C166.356 189.531 167.176 189.071 168.156 189.071C169.216 189.071 169.976 189.871 169.976 190.931C169.976 192.031 169.256 192.951 168.136 194.111L163.876 198.651L163.916 200.431Z" fill="white"/>
<path d="M153.33 254H162.27V251.54H157.33L157.31 251.48L159.87 248.8C161.65 246.96 162.15 245.74 162.15 244.18C162.15 241.64 160.07 240.12 157.77 240.12C155.47 240.12 154.03 241.26 153.23 242.72L155.17 244.1C155.77 243.1 156.59 242.64 157.57 242.64C158.63 242.64 159.39 243.44 159.39 244.5C159.39 245.6 158.67 246.52 157.55 247.68L153.29 252.22L153.33 254ZM168.856 254.16C171.636 254.16 173.836 252.66 173.836 250.22C173.836 248.34 172.796 247.08 171.456 246.58V246.54C172.296 246.18 173.136 245.04 173.136 243.68C173.136 241.42 171.316 240.1 168.856 240.1C166.456 240.1 164.596 241.36 164.596 243.68C164.596 245.04 165.416 246.14 166.276 246.54V246.58C164.956 247.1 163.896 248.36 163.896 250.22C163.896 252.58 166.016 254.16 168.856 254.16ZM168.856 245.48C167.836 245.48 167.116 244.84 167.116 243.94C167.116 243.08 167.816 242.36 168.856 242.36C169.856 242.36 170.616 243.04 170.616 243.94C170.616 244.84 169.876 245.48 168.856 245.48ZM168.856 251.84C167.616 251.84 166.636 250.96 166.636 249.86C166.636 248.68 167.536 247.84 168.856 247.84C170.156 247.84 171.076 248.68 171.076 249.86C171.076 250.9 170.176 251.84 168.856 251.84Z" fill="white"/>
<path d="M59.0403 28.2021H67.9803V25.7421H63.0403L63.0203 25.6821L65.5803 23.0021C67.3603 21.1621 67.8603 19.9421 67.8603 18.3821C67.8603 15.8421 65.7803 14.3221 63.4803 14.3221C61.1803 14.3221 59.7403 15.4621 58.9403 16.9221L60.8803 18.3021C61.4803 17.3021 62.3003 16.8421 63.2803 16.8421C64.3403 16.8421 65.1003 17.6421 65.1003 18.7021C65.1003 19.8021 64.3803 20.7221 63.2603 21.8821L59.0003 26.4221L59.0403 28.2021Z" fill="white"/>
<path d="M66.2703 92.0204C69.0503 92.0204 71.2503 90.5204 71.2503 88.0804C71.2503 86.2004 70.2103 84.9404 68.8703 84.4404V84.4004C69.7103 84.0404 70.5503 82.9004 70.5503 81.5404C70.5503 79.2804 68.7303 77.9604 66.2703 77.9604C63.8703 77.9604 62.0103 79.2204 62.0103 81.5404C62.0103 82.9004 62.8303 84.0004 63.6903 84.4004V84.4404C62.3703 84.9604 61.3103 86.2204 61.3103 88.0804C61.3103 90.4404 63.4303 92.0204 66.2703 92.0204ZM66.2703 83.3404C65.2503 83.3404 64.5303 82.7004 64.5303 81.8004C64.5303 80.9404 65.2303 80.2204 66.2703 80.2204C67.2703 80.2204 68.0303 80.9004 68.0303 81.8004C68.0303 82.7004 67.2903 83.3404 66.2703 83.3404ZM66.2703 89.7004C65.0303 89.7004 64.0503 88.8204 64.0503 87.7204C64.0503 86.5404 64.9503 85.7004 66.2703 85.7004C67.5703 85.7004 68.4903 86.5404 68.4903 87.7204C68.4903 88.7604 67.5903 89.7004 66.2703 89.7004Z" fill="white"/>
<path d="M64.4103 145.646H67.1503V131.906H64.9703L60.8303 134.886L62.1103 136.906L64.4103 135.166V145.646ZM75.0344 145.646H77.7144V143.386H79.5544V141.066H77.7144V131.906H75.5344L69.2344 141.666V143.386H75.0344V145.646ZM72.1944 141.186L75.2144 136.306V141.186H72.1944Z" fill="white"/>
<path d="M61.3303 200H70.2703V197.54H65.3303L65.3103 197.48L67.8703 194.8C69.6503 192.96 70.1503 191.74 70.1503 190.18C70.1503 187.64 68.0703 186.12 65.7703 186.12C63.4703 186.12 62.0303 187.26 61.2303 188.72L63.1703 190.1C63.7703 189.1 64.5903 188.64 65.5703 188.64C66.6303 188.64 67.3903 189.44 67.3903 190.5C67.3903 191.6 66.6703 192.52 65.5503 193.68L61.2903 198.22L61.3303 200ZM77.4363 200.18C80.7763 200.18 82.7963 197.34 82.7963 193.14C82.7963 188.68 80.6163 186.1 77.4363 186.1C74.1163 186.1 72.0763 188.94 72.0763 193.14C72.0763 197.58 74.2563 200.18 77.4363 200.18ZM77.4363 197.64C75.8363 197.64 74.8563 195.9 74.8563 193.14C74.8563 190.22 75.8563 188.62 77.4363 188.62C79.0763 188.62 80.0163 190.34 80.0163 193.14C80.0163 196.06 79.0363 197.64 77.4363 197.64Z" fill="white"/>
<path d="M61.3303 254H70.2703V251.54H65.3303L65.3103 251.48L67.8703 248.8C69.6503 246.96 70.1503 245.74 70.1503 244.18C70.1503 241.64 68.0703 240.12 65.7703 240.12C63.4703 240.12 62.0303 241.26 61.2303 242.72L63.1703 244.1C63.7703 243.1 64.5903 242.64 65.5703 242.64C66.6303 242.64 67.3903 243.44 67.3903 244.5C67.3903 245.6 66.6703 246.52 65.5503 247.68L61.2903 252.22L61.3303 254ZM77.6191 245.2C76.7391 245.2 75.8591 245.42 75.1191 245.82L75.0791 245.78C75.8791 243.86 77.5391 242.72 79.9991 242.02L79.1991 239.82C74.8791 240.62 71.9391 244.2 71.9391 248.6C71.9391 251.96 74.0591 254.18 76.8791 254.18C79.6991 254.18 81.8391 252.32 81.8391 249.62C81.8391 246.8 79.9391 245.2 77.6191 245.2ZM76.9991 251.72C75.6591 251.72 74.5391 250.6 74.5391 248.88V248.72C75.0991 248.02 75.9591 247.48 76.9191 247.48C78.2991 247.48 79.1791 248.36 79.1791 249.56C79.1791 250.74 78.3191 251.72 76.9991 251.72Z" fill="white"/>
<path d="M203.501 19.3421C203.041 19.3421 202.421 19.4421 201.801 19.6221L201.961 16.9421H207.081V14.4621H199.561L199.141 21.7421L200.601 22.2621C201.261 21.7421 201.921 21.5621 202.681 21.5621C203.781 21.5621 205.021 22.2821 205.021 23.7221C205.021 24.9621 204.081 25.9021 202.621 25.9021C201.521 25.9021 200.621 25.3821 200.081 24.6421L198.121 26.2021C199.281 27.6421 201.001 28.3821 202.881 28.3821C205.781 28.3821 207.781 26.4821 207.781 23.7621C207.781 21.0221 205.841 19.3421 203.501 19.3421Z" fill="white"/>
<path d="M203.41 91.8604H206.15V78.1204H203.97L199.83 81.1004L201.11 83.1204L203.41 81.3804V91.8604ZM211.574 91.8604H214.314V78.1204H212.134L207.994 81.1004L209.274 83.1204L211.574 81.3804V91.8604Z" fill="white"/>
<path d="M203.41 145.646H206.15V131.906H203.97L199.83 134.886L201.11 136.906L203.41 135.166V145.646ZM208.134 131.906V134.366H213.694L209.194 145.446L211.914 145.946L216.694 133.686V131.906H208.134Z" fill="white"/>
<path d="M200.33 200H209.27V197.54H204.33L204.31 197.48L206.87 194.8C208.65 192.96 209.15 191.74 209.15 190.18C209.15 187.64 207.07 186.12 204.77 186.12C202.47 186.12 201.03 187.26 200.23 188.72L202.17 190.1C202.77 189.1 203.59 188.64 204.57 188.64C205.63 188.64 206.39 189.44 206.39 190.5C206.39 191.6 205.67 192.52 204.55 193.68L200.29 198.22L200.33 200ZM215.476 200.18C218.136 200.18 220.116 198.64 220.116 196.26C220.116 194.66 219.256 193.52 217.936 192.92V192.86C219.056 192.2 219.716 191.1 219.716 189.78C219.716 187.44 217.736 186.1 215.296 186.1C213.276 186.1 211.696 187.12 211.056 188.54L213.236 189.72C213.636 189.02 214.216 188.56 215.236 188.56C216.236 188.56 217.036 189.24 217.036 190.22C217.036 191.1 216.496 191.84 215.276 191.84H214.076V194.04H215.036C216.556 194.04 217.316 194.9 217.316 195.9C217.316 197.02 216.396 197.72 215.276 197.72C214.036 197.72 213.276 197.14 212.896 196.16L210.556 197.14C211.216 198.88 213.036 200.18 215.476 200.18Z" fill="white"/>
<path d="M200.33 254H209.27V251.54H204.33L204.31 251.48L206.87 248.8C208.65 246.96 209.15 245.74 209.15 244.18C209.15 241.64 207.07 240.12 204.77 240.12C202.47 240.12 201.03 241.26 200.23 242.72L202.17 244.1C202.77 243.1 203.59 242.64 204.57 242.64C205.63 242.64 206.39 243.44 206.39 244.5C206.39 245.6 205.67 246.52 204.55 247.68L200.29 252.22L200.33 254ZM215.856 240.1C213.076 240.1 210.916 241.96 210.916 244.66C210.916 247.48 212.836 249.1 215.116 249.1C216.016 249.1 216.916 248.88 217.656 248.46L217.676 248.48C216.856 250.46 215.156 251.62 212.676 252.3L213.496 254.5C217.796 253.68 220.816 250.14 220.816 245.62C220.816 242.32 218.716 240.1 215.856 240.1ZM213.596 244.72C213.596 243.54 214.496 242.56 215.896 242.56C217.236 242.56 218.216 243.68 218.216 245.38V245.58C217.656 246.26 216.776 246.8 215.836 246.8C214.456 246.8 213.596 245.94 213.596 244.72Z" fill="white"/>
<path d="M110.588 28.3821C113.248 28.3821 115.228 26.8421 115.228 24.4621C115.228 22.8621 114.368 21.7221 113.048 21.1221V21.0621C114.168 20.4021 114.828 19.3021 114.828 17.9821C114.828 15.6421 112.848 14.3021 110.408 14.3021C108.388 14.3021 106.808 15.3221 106.168 16.7421L108.348 17.9221C108.748 17.2221 109.328 16.7621 110.348 16.7621C111.348 16.7621 112.148 17.4421 112.148 18.4221C112.148 19.3021 111.608 20.0421 110.388 20.0421H109.188V22.2421H110.148C111.668 22.2421 112.428 23.1021 112.428 24.1021C112.428 25.2221 111.508 25.9221 110.388 25.9221C109.148 25.9221 108.388 25.3421 108.008 24.3621L105.668 25.3421C106.328 27.0821 108.148 28.3821 110.588 28.3821Z" fill="white"/>
<path d="M113.27 77.9604C110.49 77.9604 108.33 79.8204 108.33 82.5204C108.33 85.3404 110.25 86.9604 112.53 86.9604C113.43 86.9604 114.33 86.7404 115.07 86.3204L115.09 86.3404C114.27 88.3204 112.57 89.4804 110.09 90.1604L110.91 92.3604C115.21 91.5404 118.23 88.0004 118.23 83.4804C118.23 80.1804 116.13 77.9604 113.27 77.9604ZM111.01 82.5804C111.01 81.4004 111.91 80.4204 113.31 80.4204C114.65 80.4204 115.63 81.5404 115.63 83.2404V83.4404C115.07 84.1204 114.19 84.6604 113.25 84.6604C111.87 84.6604 111.01 83.8004 111.01 82.5804Z" fill="white"/>
<path d="M111.41 146H114.15V132.26H111.97L107.83 135.24L109.11 137.26L111.41 135.52V146ZM121.614 137.14C121.154 137.14 120.534 137.24 119.914 137.42L120.074 134.74H125.194V132.26H117.674L117.254 139.54L118.714 140.06C119.374 139.54 120.034 139.36 120.794 139.36C121.894 139.36 123.134 140.08 123.134 141.52C123.134 142.76 122.194 143.7 120.734 143.7C119.634 143.7 118.734 143.18 118.194 142.44L116.234 144C117.394 145.44 119.114 146.18 120.994 146.18C123.894 146.18 125.894 144.28 125.894 141.56C125.894 138.82 123.954 137.14 121.614 137.14Z" fill="white"/>
<path d="M108.33 200H117.27V197.54H112.33L112.31 197.48L114.87 194.8C116.65 192.96 117.15 191.74 117.15 190.18C117.15 187.64 115.07 186.12 112.77 186.12C110.47 186.12 109.03 187.26 108.23 188.72L110.17 190.1C110.77 189.1 111.59 188.64 112.57 188.64C113.63 188.64 114.39 189.44 114.39 190.5C114.39 191.6 113.67 192.52 112.55 193.68L108.29 198.22L108.33 200ZM121.996 200H124.736V186.26H122.556L118.416 189.24L119.696 191.26L121.996 189.52V200Z" fill="white"/>
<path d="M108.33 254H117.27V251.54H112.33L112.31 251.48L114.87 248.8C116.65 246.96 117.15 245.74 117.15 244.18C117.15 241.64 115.07 240.12 112.77 240.12C110.47 240.12 109.03 241.26 108.23 242.72L110.17 244.1C110.77 243.1 111.59 242.64 112.57 242.64C113.63 242.64 114.39 243.44 114.39 244.5C114.39 245.6 113.67 246.52 112.55 247.68L108.29 252.22L108.33 254ZM118.556 240.26V242.72H124.116L119.616 253.8L122.336 254.3L127.116 242.04V240.26H118.556Z" fill="white"/>
<path d="M250.378 19.4021C249.498 19.4021 248.618 19.6221 247.878 20.0221L247.838 19.9821C248.638 18.0621 250.298 16.9221 252.758 16.2221L251.958 14.0221C247.638 14.8221 244.698 18.4021 244.698 22.8021C244.698 26.1621 246.818 28.3821 249.638 28.3821C252.458 28.3821 254.598 26.5221 254.598 23.8221C254.598 21.0021 252.698 19.4021 250.378 19.4021ZM249.758 25.9221C248.418 25.9221 247.298 24.8021 247.298 23.0821V22.9221C247.858 22.2221 248.718 21.6821 249.678 21.6821C251.058 21.6821 251.938 22.5621 251.938 23.7621C251.938 24.9421 251.078 25.9221 249.758 25.9221Z" fill="white"/>
<path d="M250.41 92H253.15V78.26H250.97L246.83 81.24L248.11 83.26L250.41 81.52V92ZM255.494 92H264.434V89.54H259.494L259.474 89.48L262.034 86.8C263.814 84.96 264.314 83.74 264.314 82.18C264.314 79.64 262.234 78.12 259.934 78.12C257.634 78.12 256.194 79.26 255.394 80.72L257.334 82.1C257.934 81.1 258.754 80.64 259.734 80.64C260.794 80.64 261.554 81.44 261.554 82.5C261.554 83.6 260.834 84.52 259.714 85.68L255.454 90.22L255.494 92Z" fill="white"/>
<path d="M250.41 146H253.15V132.26H250.97L246.83 135.24L248.11 137.26L250.41 135.52V146ZM260.434 146.16C263.214 146.16 265.414 144.66 265.414 142.22C265.414 140.34 264.374 139.08 263.034 138.58V138.54C263.874 138.18 264.714 137.04 264.714 135.68C264.714 133.42 262.894 132.1 260.434 132.1C258.034 132.1 256.174 133.36 256.174 135.68C256.174 137.04 256.994 138.14 257.854 138.54V138.58C256.534 139.1 255.474 140.36 255.474 142.22C255.474 144.58 257.594 146.16 260.434 146.16ZM260.434 137.48C259.414 137.48 258.694 136.84 258.694 135.94C258.694 135.08 259.394 134.36 260.434 134.36C261.434 134.36 262.194 135.04 262.194 135.94C262.194 136.84 261.454 137.48 260.434 137.48ZM260.434 143.84C259.194 143.84 258.214 142.96 258.214 141.86C258.214 140.68 259.114 139.84 260.434 139.84C261.734 139.84 262.654 140.68 262.654 141.86C262.654 142.9 261.754 143.84 260.434 143.84Z" fill="white"/>
<path d="M247.33 200H256.27V197.54H251.33L251.31 197.48L253.87 194.8C255.65 192.96 256.15 191.74 256.15 190.18C256.15 187.64 254.07 186.12 251.77 186.12C249.47 186.12 248.03 187.26 247.23 188.72L249.17 190.1C249.77 189.1 250.59 188.64 251.57 188.64C252.63 188.64 253.39 189.44 253.39 190.5C253.39 191.6 252.67 192.52 251.55 193.68L247.29 198.22L247.33 200ZM263.261 200H265.941V197.74H267.781V195.42H265.941V186.26H263.761L257.461 196.02V197.74H263.261V200ZM260.421 195.54L263.441 190.66V195.54H260.421Z" fill="white"/>
<path d="M251.89 254.18C254.55 254.18 256.53 252.64 256.53 250.26C256.53 248.66 255.67 247.52 254.35 246.92V246.86C255.47 246.2 256.13 245.1 256.13 243.78C256.13 241.44 254.15 240.1 251.71 240.1C249.69 240.1 248.11 241.12 247.47 242.54L249.65 243.72C250.05 243.02 250.63 242.56 251.65 242.56C252.65 242.56 253.45 243.24 253.45 244.22C253.45 245.1 252.91 245.84 251.69 245.84H250.49V248.04H251.45C252.97 248.04 253.73 248.9 253.73 249.9C253.73 251.02 252.81 251.72 251.69 251.72C250.45 251.72 249.69 251.14 249.31 250.16L246.97 251.14C247.63 252.88 249.45 254.18 251.89 254.18ZM263.69 254.18C267.03 254.18 269.05 251.34 269.05 247.14C269.05 242.68 266.87 240.1 263.69 240.1C260.37 240.1 258.33 242.94 258.33 247.14C258.33 251.58 260.51 254.18 263.69 254.18ZM263.69 251.64C262.09 251.64 261.11 249.9 261.11 247.14C261.11 244.22 262.11 242.62 263.69 242.62C265.33 242.62 266.27 244.34 266.27 247.14C266.27 250.06 265.29 251.64 263.69 251.64Z" fill="white"/>
<path d="M291.186 14.4621V16.9221H296.746L292.246 28.0021L294.966 28.5021L299.746 16.2421V14.4621H291.186Z" fill="white"/>
<path d="M296.626 91.8604H299.366V78.1204H297.186L293.046 81.1004L294.326 83.1204L296.626 81.3804V91.8604ZM306.27 92.0404C308.93 92.0404 310.91 90.5004 310.91 88.1204C310.91 86.5204 310.05 85.3804 308.73 84.7804V84.7204C309.85 84.0604 310.51 82.9604 310.51 81.6404C310.51 79.3004 308.53 77.9604 306.09 77.9604C304.07 77.9604 302.49 78.9804 301.85 80.4004L304.03 81.5804C304.43 80.8804 305.01 80.4204 306.03 80.4204C307.03 80.4204 307.83 81.1004 307.83 82.0804C307.83 82.9604 307.29 83.7004 306.07 83.7004H304.87V85.9004H305.83C307.35 85.9004 308.11 86.7604 308.11 87.7604C308.11 88.8804 307.19 89.5804 306.07 89.5804C304.83 89.5804 304.07 89.0004 303.69 88.0204L301.35 89.0004C302.01 90.7404 303.83 92.0404 306.27 92.0404Z" fill="white"/>
<path d="M296.41 146H299.15V132.26H296.97L292.83 135.24L294.11 137.26L296.41 135.52V146ZM306.434 132.1C303.654 132.1 301.494 133.96 301.494 136.66C301.494 139.48 303.414 141.1 305.694 141.1C306.594 141.1 307.494 140.88 308.234 140.46L308.254 140.48C307.434 142.46 305.734 143.62 303.254 144.3L304.074 146.5C308.374 145.68 311.394 142.14 311.394 137.62C311.394 134.32 309.294 132.1 306.434 132.1ZM304.174 136.72C304.174 135.54 305.074 134.56 306.474 134.56C307.814 134.56 308.794 135.68 308.794 137.38V137.58C308.234 138.26 307.354 138.8 306.414 138.8C305.034 138.8 304.174 137.94 304.174 136.72Z" fill="white"/>
<path d="M293.33 200H302.27V197.54H297.33L297.31 197.48L299.87 194.8C301.65 192.96 302.15 191.74 302.15 190.18C302.15 187.64 300.07 186.12 297.77 186.12C295.47 186.12 294.03 187.26 293.23 188.72L295.17 190.1C295.77 189.1 296.59 188.64 297.57 188.64C298.63 188.64 299.39 189.44 299.39 190.5C299.39 191.6 298.67 192.52 297.55 193.68L293.29 198.22L293.33 200ZM309.036 191.14C308.576 191.14 307.956 191.24 307.336 191.42L307.496 188.74H312.616V186.26H305.096L304.676 193.54L306.136 194.06C306.796 193.54 307.456 193.36 308.216 193.36C309.316 193.36 310.556 194.08 310.556 195.52C310.556 196.76 309.616 197.7 308.156 197.7C307.056 197.7 306.156 197.18 305.616 196.44L303.656 198C304.816 199.44 306.536 200.18 308.416 200.18C311.316 200.18 313.316 198.28 313.316 195.56C313.316 192.82 311.376 191.14 309.036 191.14Z" fill="white"/>
<path d="M301.486 253.785H304.226V240.045H302.046L297.906 243.025L299.186 245.045L301.486 243.305V253.785Z" fill="#212121"/>
<path d="M1.144 53.127H1.833L7.488 45.184H7.501V53.127H8.242V43.897H7.579L1.898 51.879H1.885V43.897H1.144V53.127ZM17.6108 43.832C15.0628 43.832 13.2558 45.73 13.2038 48.421H11.2408V43.897H10.4998V53.127H11.2408V49.097H13.2298C13.4638 51.476 15.2058 53.192 17.6108 53.192C20.2628 53.192 22.0568 51.242 22.0568 48.499C22.0568 45.756 20.2628 43.832 17.6108 43.832ZM17.6108 52.49C15.4918 52.49 13.9708 50.774 13.9708 48.551C13.9708 46.224 15.4918 44.534 17.6108 44.534C19.8078 44.534 21.2898 46.198 21.2898 48.499C21.2898 50.813 19.8078 52.49 17.6108 52.49ZM23.9067 53.127H24.6477V49.097H30.0687V53.127H30.8097V43.897H30.0687V48.421H24.6477V43.897H23.9067V53.127ZM32.6171 53.127H33.4881L35.8801 49.461H38.3761V53.127H39.1171V43.897H35.8931C33.8521 43.897 32.8511 45.002 32.8511 46.666C32.8511 48.213 33.7351 49.071 35.1001 49.344L32.6171 53.127ZM36.1661 48.772C34.3461 48.772 33.6181 47.888 33.6181 46.653C33.6181 45.249 34.5411 44.573 35.9581 44.573H38.3761V48.772H36.1661Z" fill="white"/>
<circle cx="303.293" cy="157.304" r="2.02532" fill="#DE131E"/>
<circle cx="162.596" cy="213.025" r="2.02532" fill="#DE131E"/>
</svg>
