<svg width="42" height="42" viewBox="0 0 42 42" fill="none" xmlns="http://www.w3.org/2000/svg">
<circle cx="21" cy="21" r="21" fill="white"/>
<path d="M11.392 27H13.328V22.952H14.848L17.568 27H19.888L16.944 22.76C18.608 22.28 19.472 21.096 19.472 19.32C19.472 17.208 18.288 15.64 15.584 15.64H11.392V27ZM13.328 21.208V17.368H15.296C16.688 17.368 17.472 18.088 17.472 19.288C17.472 20.408 16.72 21.208 15.168 21.208H13.328ZM26.0096 27.128C28.8416 27.128 30.5536 25.272 30.5536 22.328V15.64H28.6176V22.184C28.6176 24.136 27.5296 25.304 26.0096 25.304C24.3776 25.304 23.4176 23.992 23.4176 22.184V15.64H21.4976V22.328C21.4976 25.384 23.3216 27.128 26.0096 27.128Z" fill="#0E0E0E"/>
</svg>
