<svg width="55" height="48" viewBox="0 0 55 48" fill="none" xmlns="http://www.w3.org/2000/svg">
<path d="M14.4954 28.3069C12.9201 28.3069 11.7131 27.9489 10.8743 27.2328C10.0355 26.4963 9.61609 25.4734 9.61609 24.1641C9.61609 23.6526 9.67747 23.09 9.80022 22.4763L10.0764 21.2181H13.2986L12.9303 22.9673C12.869 23.2537 12.8383 23.5094 12.8383 23.7345C12.8383 24.7369 13.3906 25.2381 14.4954 25.2381C15.5183 25.2381 16.1832 24.5016 16.4901 23.0287L16.9197 20.9419C17.022 20.3691 17.0731 19.9906 17.0731 19.8065C17.0731 18.8245 16.5105 18.3335 15.3853 18.3335H14.1271L14.7716 15.2648H15.8763C17.3288 15.2648 18.2188 14.4669 18.5461 12.8711L18.8223 11.5823C18.8837 11.3163 18.9144 11.0606 18.9144 10.8151C18.9144 9.79218 18.4029 9.28073 17.38 9.28073C16.4594 9.28073 15.8559 9.88424 15.5694 11.0913L15.2012 12.687H11.979L12.3473 10.9992C13.0428 7.80773 14.792 6.21199 17.5948 6.21199C19.0883 6.21199 20.2544 6.57001 21.0932 7.28605C21.9524 7.98163 22.382 8.98408 22.382 10.2934C22.382 10.8867 22.3104 11.4595 22.1672 12.0119L22.0752 12.4108C21.7887 13.6997 21.3693 14.6919 20.817 15.3875C20.2851 16.0626 19.5588 16.5127 18.6382 16.7377V16.7684C19.8657 17.3413 20.4794 18.3744 20.4794 19.8679C20.4794 20.1952 20.4283 20.6453 20.326 21.2181L19.8043 23.5503C19.0883 26.7214 17.3186 28.3069 14.4954 28.3069ZM26.4335 28.3069C24.8377 28.3069 23.6102 27.9386 22.751 27.2021C21.9122 26.4656 21.4928 25.4223 21.4928 24.072C21.4928 23.5401 21.5542 22.9877 21.6769 22.4149L24.0705 11.214C24.7661 7.87934 26.5665 6.21199 29.4715 6.21199C31.0877 6.21199 32.3152 6.58024 33.154 7.31674C34.0132 8.03277 34.4429 9.06591 34.4429 10.4162C34.4429 10.8867 34.3815 11.4186 34.2587 12.0119H31.0059C31.1286 11.5209 31.19 11.1015 31.19 10.7537C31.19 9.77172 30.607 9.28073 29.4408 9.28073C28.4179 9.28073 27.7428 10.0888 27.4155 11.705L26.5562 15.7558C27.3746 14.6919 28.3872 14.16 29.5943 14.16C30.6786 14.16 31.5071 14.4669 32.0799 15.0806C32.6732 15.6739 32.9699 16.5229 32.9699 17.6277C32.9699 18.2823 32.8983 18.8859 32.7551 19.4382L31.8651 23.489C31.1286 26.7009 29.3181 28.3069 26.4335 28.3069ZM26.5562 25.2688C27.5382 25.2688 28.1622 24.6449 28.4282 23.3969L29.2567 19.4996C29.3181 19.1927 29.3488 18.9268 29.3488 18.7017C29.3488 17.7197 28.8066 17.2287 27.7223 17.2287C26.7403 17.2287 26.1061 17.863 25.8197 19.1314L24.9912 23.0287C24.9298 23.3151 24.8991 23.5708 24.8991 23.7958C24.8991 24.7778 25.4515 25.2688 26.5562 25.2688ZM38.5113 28.3069C36.9565 28.3069 35.7392 27.9386 34.8595 27.2021C33.9798 26.4452 33.54 25.3711 33.54 23.98C33.54 23.489 33.6014 22.9673 33.7241 22.4149L36.1484 11.0606C36.4757 9.48531 37.0997 8.2885 38.0203 7.47017C38.9614 6.63139 40.1378 6.21199 41.5494 6.21199C43.1042 6.21199 44.3215 6.59047 45.2012 7.34742C46.0809 8.08392 46.5207 9.14775 46.5207 10.5389C46.5207 11.0504 46.4594 11.5823 46.3366 12.1346L43.9123 23.489C43.2167 26.7009 41.4164 28.3069 38.5113 28.3069ZM38.6955 25.2381C39.6161 25.2381 40.2196 24.6039 40.506 23.3355L42.9917 11.5823C43.0531 11.3163 43.0838 11.0606 43.0838 10.8151C43.0838 9.79218 42.5211 9.28073 41.3959 9.28073C40.4549 9.28073 39.8411 9.92516 39.5547 11.214L37.069 22.9673C37.0077 23.2537 36.977 23.4992 36.977 23.7038C36.977 24.7267 37.5498 25.2381 38.6955 25.2381Z" fill="white"/>
<path d="M4.04018 25.0292C4.34702 24.7224 4.34702 24.2249 4.04017 23.918C3.73333 23.6112 3.23585 23.6112 2.92901 23.9181L4.04018 25.0292ZM25.3967 40.5489C25.596 40.1635 25.4452 39.6894 25.0598 39.49L18.7788 36.2413C18.3934 36.0419 17.9193 36.1928 17.7199 36.5782C17.5206 36.9636 17.6714 37.4377 18.0569 37.637L23.6399 40.5248L20.7522 46.1079C20.5528 46.4934 20.7036 46.9674 21.0891 47.1668C21.4745 47.3661 21.9486 47.2153 22.1479 46.8299L25.3967 40.5489ZM2.92901 23.9181C0.802882 26.0442 -0.0262971 28.588 0.273614 31.1099C0.571014 33.6107 1.96733 36.0119 4.14383 37.9293C8.50447 41.7708 16.0697 43.7581 24.937 40.9366L24.4606 39.4392C16.0423 42.1178 9.07192 40.1765 5.18259 36.7501C3.2341 35.0336 2.07684 32.966 1.83405 30.9244C1.59376 28.9039 2.23777 26.8316 4.04018 25.0292L2.92901 23.9181Z" fill="#DE131E"/>
<path d="M51.4129 22.1162C55.3415 26.0448 54.5558 29.9734 47.4844 33.9019" stroke="#DE131E" stroke-width="1.57143"/>
<path d="M51.1424 12.8112C50.5205 12.8112 50.0336 12.6639 49.6817 12.3693C49.3298 12.0665 49.1539 11.6369 49.1539 11.0805C49.1539 10.8841 49.1784 10.6754 49.2275 10.4544L50.1972 5.91271C50.3282 5.2826 50.5778 4.80388 50.946 4.47655C51.3224 4.14103 51.793 3.97327 52.3576 3.97327C52.9796 3.97327 53.4665 4.12466 53.8183 4.42745C54.1702 4.72204 54.3462 5.14758 54.3462 5.70404C54.3462 5.90862 54.3216 6.12139 54.2725 6.34234L53.3028 10.8841C53.0246 12.1688 52.3044 12.8112 51.1424 12.8112ZM51.2161 11.5837C51.5843 11.5837 51.8257 11.3301 51.9403 10.8227L52.9345 6.12139C52.9591 6.015 52.9714 5.91271 52.9714 5.81451C52.9714 5.40535 52.7463 5.20077 52.2962 5.20077C51.9198 5.20077 51.6743 5.45854 51.5598 5.97409L50.5655 10.6754C50.5409 10.79 50.5287 10.8882 50.5287 10.97C50.5287 11.3792 50.7578 11.5837 51.2161 11.5837Z" fill="white"/>
</svg>
