<svg width="544" height="301" viewBox="0 0 544 301" fill="none" xmlns="http://www.w3.org/2000/svg">
<rect x="27" y="21" width="406" height="54" rx="10" fill="#212121"/>
<path d="M14.83 105.05C15.68 105.05 16.34 104.71 16.75 104.24L16.39 103.9C16.05 104.3 15.47 104.55 14.87 104.55C13.76 104.55 13 103.75 13 102.57C13 101.41 13.75 100.59 14.87 100.59C15.51 100.59 16.04 100.86 16.36 101.25L16.74 100.91C16.27 100.37 15.55 100.1 14.85 100.1C13.44 100.1 12.46 101.12 12.46 102.58C12.46 104.03 13.43 105.05 14.83 105.05ZM17.8777 106.98H18.4077V103.94L18.4277 103.93C18.7777 104.6 19.4477 105.05 20.3277 105.05C21.6577 105.05 22.7077 104.08 22.7077 102.61C22.7077 101.2 21.7277 100.1 20.3277 100.1C19.4977 100.1 18.7877 100.53 18.4277 101.24H18.4077V100.15H17.8777V106.98ZM20.2677 104.55C19.2277 104.55 18.3977 103.78 18.3977 102.62C18.3977 101.49 19.1377 100.59 20.2577 100.59C21.3077 100.59 22.1577 101.39 22.1577 102.62C22.1577 103.7 21.3977 104.55 20.2677 104.55ZM28.1619 102.45C28.1619 101.1 27.2819 100.1 25.9819 100.1C24.6419 100.1 23.6319 101.13 23.6319 102.57C23.6319 104.02 24.6219 105.05 26.0219 105.05C26.9319 105.05 27.5619 104.69 27.9719 104.14L27.5919 103.82C27.2519 104.26 26.7319 104.55 26.0319 104.55C24.9719 104.55 24.2219 103.8 24.1719 102.69H28.1519C28.1619 102.66 28.1619 102.56 28.1619 102.45ZM25.9819 100.59C26.9219 100.59 27.5319 101.26 27.6319 102.25H24.1919C24.3219 101.25 25.0519 100.59 25.9819 100.59ZM34.077 104.52H33.267V100.15H30.247C30.247 100.95 30.207 101.75 30.067 102.51C29.927 103.24 29.697 103.93 29.317 104.52H28.587V106.39H29.037L29.077 105H33.597L33.637 106.39H34.077V104.52ZM29.877 104.52C30.207 104 30.437 103.37 30.567 102.67C30.707 101.97 30.747 101.24 30.757 100.63H32.737V104.52H29.877ZM36.9784 105.05C37.8584 105.05 38.5284 104.59 38.8784 103.9L38.8984 103.91V105H39.4084V100.15H38.8784V101.25H38.8684C38.5084 100.53 37.7984 100.1 36.9784 100.1C35.5784 100.1 34.5884 101.2 34.5884 102.61C34.5884 104.08 35.6484 105.05 36.9784 105.05ZM37.0384 104.55C35.8984 104.55 35.1384 103.7 35.1384 102.62C35.1384 101.39 35.9884 100.59 37.0484 100.59C38.1384 100.59 38.8984 101.49 38.8984 102.62C38.8984 103.78 38.0584 104.55 37.0384 104.55Z" fill="#595959"/>
<circle cx="27" cy="48" r="27" fill="#DE131E"/>
<circle cx="433" cy="48" r="27" fill="#DE131E"/>
<path d="M22.36 55H33.32V0.0399971H24.6L8.04 11.96L13.16 20.04L22.36 13.08V55Z" fill="white"/>
<path d="M270.3 55H272.98V52.74H274.82V50.42H272.98V41.26H270.8L264.5 51.02V52.74H270.3V55ZM267.46 50.54L270.48 45.66V50.54H267.46Z" fill="white"/>
<path d="M267.84 140H270.58V126.26H268.4L264.26 129.24L265.54 131.26L267.84 129.52V140ZM278.444 140.18C281.784 140.18 283.804 137.34 283.804 133.14C283.804 128.68 281.624 126.1 278.444 126.1C275.124 126.1 273.084 128.94 273.084 133.14C273.084 137.58 275.264 140.18 278.444 140.18ZM278.444 137.64C276.844 137.64 275.864 135.9 275.864 133.14C275.864 130.22 276.864 128.62 278.444 128.62C280.084 128.62 281.024 130.34 281.024 133.14C281.024 136.06 280.044 137.64 278.444 137.64Z" fill="white"/>
<path d="M267.84 194H270.58V180.26H268.4L264.26 183.24L265.54 185.26L267.84 183.52V194ZM278.744 185.2C277.864 185.2 276.984 185.42 276.244 185.82L276.204 185.78C277.004 183.86 278.664 182.72 281.124 182.02L280.324 179.82C276.004 180.62 273.064 184.2 273.064 188.6C273.064 191.96 275.184 194.18 278.004 194.18C280.824 194.18 282.964 192.32 282.964 189.62C282.964 186.8 281.064 185.2 278.744 185.2ZM278.124 191.72C276.784 191.72 275.664 190.6 275.664 188.88V188.72C276.224 188.02 277.084 187.48 278.044 187.48C279.424 187.48 280.304 188.36 280.304 189.56C280.304 190.74 279.444 191.72 278.124 191.72Z" fill="white"/>
<path d="M264.76 248H273.7V245.54H268.76L268.74 245.48L271.3 242.8C273.08 240.96 273.58 239.74 273.58 238.18C273.58 235.64 271.5 234.12 269.2 234.12C266.9 234.12 265.46 235.26 264.66 236.72L266.6 238.1C267.2 237.1 268.02 236.64 269 236.64C270.06 236.64 270.82 237.44 270.82 238.5C270.82 239.6 270.1 240.52 268.98 241.68L264.72 246.22L264.76 248ZM275.346 248H284.286V245.54H279.346L279.326 245.48L281.886 242.8C283.666 240.96 284.166 239.74 284.166 238.18C284.166 235.64 282.086 234.12 279.786 234.12C277.486 234.12 276.046 235.26 275.246 236.72L277.186 238.1C277.786 237.1 278.606 236.64 279.586 236.64C280.646 236.64 281.406 237.44 281.406 238.5C281.406 239.6 280.686 240.52 279.566 241.68L275.306 246.22L275.346 248Z" fill="white"/>
<path d="M264.76 298H273.7V295.54H268.76L268.74 295.48L271.3 292.8C273.08 290.96 273.58 289.74 273.58 288.18C273.58 285.64 271.5 284.12 269.2 284.12C266.9 284.12 265.46 285.26 264.66 286.72L266.6 288.1C267.2 287.1 268.02 286.64 269 286.64C270.06 286.64 270.82 287.44 270.82 288.5C270.82 289.6 270.1 290.52 268.98 291.68L264.72 296.22L264.76 298ZM280.286 298.16C283.066 298.16 285.266 296.66 285.266 294.22C285.266 292.34 284.226 291.08 282.886 290.58V290.54C283.726 290.18 284.566 289.04 284.566 287.68C284.566 285.42 282.746 284.1 280.286 284.1C277.886 284.1 276.026 285.36 276.026 287.68C276.026 289.04 276.846 290.14 277.706 290.54V290.58C276.386 291.1 275.326 292.36 275.326 294.22C275.326 296.58 277.446 298.16 280.286 298.16ZM280.286 289.48C279.266 289.48 278.546 288.84 278.546 287.94C278.546 287.08 279.246 286.36 280.286 286.36C281.286 286.36 282.046 287.04 282.046 287.94C282.046 288.84 281.306 289.48 280.286 289.48ZM280.286 295.84C279.046 295.84 278.066 294.96 278.066 293.86C278.066 292.68 278.966 291.84 280.286 291.84C281.586 291.84 282.506 292.68 282.506 293.86C282.506 294.9 281.606 295.84 280.286 295.84Z" fill="white"/>
<path d="M102.76 55H111.7V52.54H106.76L106.74 52.48L109.3 49.8C111.08 47.96 111.58 46.74 111.58 45.18C111.58 42.64 109.5 41.12 107.2 41.12C104.9 41.12 103.46 42.26 102.66 43.72L104.6 45.1C105.2 44.1 106.02 43.64 107 43.64C108.06 43.64 108.82 44.44 108.82 45.5C108.82 46.6 108.1 47.52 106.98 48.68L102.72 53.22L102.76 55Z" fill="white"/>
<path d="M107.7 140.16C110.48 140.16 112.68 138.66 112.68 136.22C112.68 134.34 111.64 133.08 110.3 132.58V132.54C111.14 132.18 111.98 131.04 111.98 129.68C111.98 127.42 110.16 126.1 107.7 126.1C105.3 126.1 103.44 127.36 103.44 129.68C103.44 131.04 104.26 132.14 105.12 132.54V132.58C103.8 133.1 102.74 134.36 102.74 136.22C102.74 138.58 104.86 140.16 107.7 140.16ZM107.7 131.48C106.68 131.48 105.96 130.84 105.96 129.94C105.96 129.08 106.66 128.36 107.7 128.36C108.7 128.36 109.46 129.04 109.46 129.94C109.46 130.84 108.72 131.48 107.7 131.48ZM107.7 137.84C106.46 137.84 105.48 136.96 105.48 135.86C105.48 134.68 106.38 133.84 107.7 133.84C109 133.84 109.92 134.68 109.92 135.86C109.92 136.9 109.02 137.84 107.7 137.84Z" fill="white"/>
<path d="M105.84 194H108.58V180.26H106.4L102.26 183.24L103.54 185.26L105.84 183.52V194ZM116.464 194H119.144V191.74H120.984V189.42H119.144V180.26H116.964L110.664 190.02V191.74H116.464V194ZM113.624 189.54L116.644 184.66V189.54H113.624Z" fill="white"/>
<path d="M102.76 248H111.7V245.54H106.76L106.74 245.48L109.3 242.8C111.08 240.96 111.58 239.74 111.58 238.18C111.58 235.64 109.5 234.12 107.2 234.12C104.9 234.12 103.46 235.26 102.66 236.72L104.6 238.1C105.2 237.1 106.02 236.64 107 236.64C108.06 236.64 108.82 237.44 108.82 238.5C108.82 239.6 108.1 240.52 106.98 241.68L102.72 246.22L102.76 248ZM118.866 248.18C122.206 248.18 124.226 245.34 124.226 241.14C124.226 236.68 122.046 234.1 118.866 234.1C115.546 234.1 113.506 236.94 113.506 241.14C113.506 245.58 115.686 248.18 118.866 248.18ZM118.866 245.64C117.266 245.64 116.286 243.9 116.286 241.14C116.286 238.22 117.286 236.62 118.866 236.62C120.506 236.62 121.446 238.34 121.446 241.14C121.446 244.06 120.466 245.64 118.866 245.64Z" fill="white"/>
<path d="M102.76 298H111.7V295.54H106.76L106.74 295.48L109.3 292.8C111.08 290.96 111.58 289.74 111.58 288.18C111.58 285.64 109.5 284.12 107.2 284.12C104.9 284.12 103.46 285.26 102.66 286.72L104.6 288.1C105.2 287.1 106.02 286.64 107 286.64C108.06 286.64 108.82 287.44 108.82 288.5C108.82 289.6 108.1 290.52 106.98 291.68L102.72 296.22L102.76 298ZM119.049 289.2C118.169 289.2 117.289 289.42 116.549 289.82L116.509 289.78C117.309 287.86 118.969 286.72 121.429 286.02L120.629 283.82C116.309 284.62 113.369 288.2 113.369 292.6C113.369 295.96 115.489 298.18 118.309 298.18C121.129 298.18 123.269 296.32 123.269 293.62C123.269 290.8 121.369 289.2 119.049 289.2ZM118.429 295.72C117.089 295.72 115.969 294.6 115.969 292.88V292.72C116.529 292.02 117.389 291.48 118.349 291.48C119.729 291.48 120.609 292.36 120.609 293.56C120.609 294.74 119.749 295.72 118.429 295.72Z" fill="white"/>
<path d="M350.88 46.14C350.42 46.14 349.8 46.24 349.18 46.42L349.34 43.74H354.46V41.26H346.94L346.52 48.54L347.98 49.06C348.64 48.54 349.3 48.36 350.06 48.36C351.16 48.36 352.4 49.08 352.4 50.52C352.4 51.76 351.46 52.7 350 52.7C348.9 52.7 348 52.18 347.46 51.44L345.5 53C346.66 54.44 348.38 55.18 350.26 55.18C353.16 55.18 355.16 53.28 355.16 50.56C355.16 47.82 353.22 46.14 350.88 46.14Z" fill="white"/>
<path d="M348.84 140H351.58V126.26H349.4L345.26 129.24L346.54 131.26L348.84 129.52V140ZM357.004 140H359.744V126.26H357.564L353.424 129.24L354.704 131.26L357.004 129.52V140Z" fill="white"/>
<path d="M348.84 194H351.58V180.26H349.4L345.26 183.24L346.54 185.26L348.84 183.52V194ZM353.564 180.26V182.72H359.124L354.624 193.8L357.344 194.3L362.124 182.04V180.26H353.564Z" fill="white"/>
<path d="M345.76 248H354.7V245.54H349.76L349.74 245.48L352.3 242.8C354.08 240.96 354.58 239.74 354.58 238.18C354.58 235.64 352.5 234.12 350.2 234.12C347.9 234.12 346.46 235.26 345.66 236.72L347.6 238.1C348.2 237.1 349.02 236.64 350 236.64C351.06 236.64 351.82 237.44 351.82 238.5C351.82 239.6 351.1 240.52 349.98 241.68L345.72 246.22L345.76 248ZM360.906 248.18C363.566 248.18 365.546 246.64 365.546 244.26C365.546 242.66 364.686 241.52 363.366 240.92V240.86C364.486 240.2 365.146 239.1 365.146 237.78C365.146 235.44 363.166 234.1 360.726 234.1C358.706 234.1 357.126 235.12 356.486 236.54L358.666 237.72C359.066 237.02 359.646 236.56 360.666 236.56C361.666 236.56 362.466 237.24 362.466 238.22C362.466 239.1 361.926 239.84 360.706 239.84H359.506V242.04H360.466C361.986 242.04 362.746 242.9 362.746 243.9C362.746 245.02 361.826 245.72 360.706 245.72C359.466 245.72 358.706 245.14 358.326 244.16L355.986 245.14C356.646 246.88 358.466 248.18 360.906 248.18Z" fill="white"/>
<path d="M345.76 298H354.7V295.54H349.76L349.74 295.48L352.3 292.8C354.08 290.96 354.58 289.74 354.58 288.18C354.58 285.64 352.5 284.12 350.2 284.12C347.9 284.12 346.46 285.26 345.66 286.72L347.6 288.1C348.2 287.1 349.02 286.64 350 286.64C351.06 286.64 351.82 287.44 351.82 288.5C351.82 289.6 351.1 290.52 349.98 291.68L345.72 296.22L345.76 298ZM361.286 284.1C358.506 284.1 356.346 285.96 356.346 288.66C356.346 291.48 358.266 293.1 360.546 293.1C361.446 293.1 362.346 292.88 363.086 292.46L363.106 292.48C362.286 294.46 360.586 295.62 358.106 296.3L358.926 298.5C363.226 297.68 366.246 294.14 366.246 289.62C366.246 286.32 364.146 284.1 361.286 284.1ZM359.026 288.72C359.026 287.54 359.926 286.56 361.326 286.56C362.666 286.56 363.646 287.68 363.646 289.38V289.58C363.086 290.26 362.206 290.8 361.266 290.8C359.886 290.8 359.026 289.94 359.026 288.72Z" fill="white"/>
<path d="M188.32 55.18C190.98 55.18 192.96 53.64 192.96 51.26C192.96 49.66 192.1 48.52 190.78 47.92V47.86C191.9 47.2 192.56 46.1 192.56 44.78C192.56 42.44 190.58 41.1 188.14 41.1C186.12 41.1 184.54 42.12 183.9 43.54L186.08 44.72C186.48 44.02 187.06 43.56 188.08 43.56C189.08 43.56 189.88 44.24 189.88 45.22C189.88 46.1 189.34 46.84 188.12 46.84H186.92V49.04H187.88C189.4 49.04 190.16 49.9 190.16 50.9C190.16 52.02 189.24 52.72 188.12 52.72C186.88 52.72 186.12 52.14 185.74 51.16L183.4 52.14C184.06 53.88 185.88 55.18 188.32 55.18Z" fill="white"/>
<path d="M188.7 126.1C185.92 126.1 183.76 127.96 183.76 130.66C183.76 133.48 185.68 135.1 187.96 135.1C188.86 135.1 189.76 134.88 190.5 134.46L190.52 134.48C189.7 136.46 188 137.62 185.52 138.3L186.34 140.5C190.64 139.68 193.66 136.14 193.66 131.62C193.66 128.32 191.56 126.1 188.7 126.1ZM186.44 130.72C186.44 129.54 187.34 128.56 188.74 128.56C190.08 128.56 191.06 129.68 191.06 131.38V131.58C190.5 132.26 189.62 132.8 188.68 132.8C187.3 132.8 186.44 131.94 186.44 130.72Z" fill="white"/>
<path d="M186.84 194H189.58V180.26H187.4L183.26 183.24L184.54 185.26L186.84 183.52V194ZM197.044 185.14C196.584 185.14 195.964 185.24 195.344 185.42L195.504 182.74H200.624V180.26H193.104L192.684 187.54L194.144 188.06C194.804 187.54 195.464 187.36 196.224 187.36C197.324 187.36 198.564 188.08 198.564 189.52C198.564 190.76 197.624 191.7 196.164 191.7C195.064 191.7 194.164 191.18 193.624 190.44L191.664 192C192.824 193.44 194.544 194.18 196.424 194.18C199.324 194.18 201.324 192.28 201.324 189.56C201.324 186.82 199.384 185.14 197.044 185.14Z" fill="white"/>
<path d="M183.76 248H192.7V245.54H187.76L187.74 245.48L190.3 242.8C192.08 240.96 192.58 239.74 192.58 238.18C192.58 235.64 190.5 234.12 188.2 234.12C185.9 234.12 184.46 235.26 183.66 236.72L185.6 238.1C186.2 237.1 187.02 236.64 188 236.64C189.06 236.64 189.82 237.44 189.82 238.5C189.82 239.6 189.1 240.52 187.98 241.68L183.72 246.22L183.76 248ZM197.426 248H200.166V234.26H197.986L193.846 237.24L195.126 239.26L197.426 237.52V248Z" fill="white"/>
<path d="M183.76 298H192.7V295.54H187.76L187.74 295.48L190.3 292.8C192.08 290.96 192.58 289.74 192.58 288.18C192.58 285.64 190.5 284.12 188.2 284.12C185.9 284.12 184.46 285.26 183.66 286.72L185.6 288.1C186.2 287.1 187.02 286.64 188 286.64C189.06 286.64 189.82 287.44 189.82 288.5C189.82 289.6 189.1 290.52 187.98 291.68L183.72 296.22L183.76 298ZM193.986 284.26V286.72H199.546L195.046 297.8L197.766 298.3L202.546 286.04V284.26H193.986Z" fill="white"/>
<path d="M432.58 46.2C431.7 46.2 430.82 46.42 430.08 46.82L430.04 46.78C430.84 44.86 432.5 43.72 434.96 43.02L434.16 40.82C429.84 41.62 426.9 45.2 426.9 49.6C426.9 52.96 429.02 55.18 431.84 55.18C434.66 55.18 436.8 53.32 436.8 50.62C436.8 47.8 434.9 46.2 432.58 46.2ZM431.96 52.72C430.62 52.72 429.5 51.6 429.5 49.88V49.72C430.06 49.02 430.92 48.48 431.88 48.48C433.26 48.48 434.14 49.36 434.14 50.56C434.14 51.74 433.28 52.72 431.96 52.72Z" fill="white"/>
<path d="M429.84 140H432.58V126.26H430.4L426.26 129.24L427.54 131.26L429.84 129.52V140ZM434.924 140H443.864V137.54H438.924L438.904 137.48L441.464 134.8C443.244 132.96 443.744 131.74 443.744 130.18C443.744 127.64 441.664 126.12 439.364 126.12C437.064 126.12 435.624 127.26 434.824 128.72L436.764 130.1C437.364 129.1 438.184 128.64 439.164 128.64C440.224 128.64 440.984 129.44 440.984 130.5C440.984 131.6 440.264 132.52 439.144 133.68L434.884 138.22L434.924 140Z" fill="white"/>
<path d="M429.84 194H432.58V180.26H430.4L426.26 183.24L427.54 185.26L429.84 183.52V194ZM439.864 194.16C442.644 194.16 444.844 192.66 444.844 190.22C444.844 188.34 443.804 187.08 442.464 186.58V186.54C443.304 186.18 444.144 185.04 444.144 183.68C444.144 181.42 442.324 180.1 439.864 180.1C437.464 180.1 435.604 181.36 435.604 183.68C435.604 185.04 436.424 186.14 437.284 186.54V186.58C435.964 187.1 434.904 188.36 434.904 190.22C434.904 192.58 437.024 194.16 439.864 194.16ZM439.864 185.48C438.844 185.48 438.124 184.84 438.124 183.94C438.124 183.08 438.824 182.36 439.864 182.36C440.864 182.36 441.624 183.04 441.624 183.94C441.624 184.84 440.884 185.48 439.864 185.48ZM439.864 191.84C438.624 191.84 437.644 190.96 437.644 189.86C437.644 188.68 438.544 187.84 439.864 187.84C441.164 187.84 442.084 188.68 442.084 189.86C442.084 190.9 441.184 191.84 439.864 191.84Z" fill="white"/>
<path d="M426.76 248H435.7V245.54H430.76L430.74 245.48L433.3 242.8C435.08 240.96 435.58 239.74 435.58 238.18C435.58 235.64 433.5 234.12 431.2 234.12C428.9 234.12 427.46 235.26 426.66 236.72L428.6 238.1C429.2 237.1 430.02 236.64 431 236.64C432.06 236.64 432.82 237.44 432.82 238.5C432.82 239.6 432.1 240.52 430.98 241.68L426.72 246.22L426.76 248ZM442.691 248H445.371V245.74H447.211V243.42H445.371V234.26H443.191L436.891 244.02V245.74H442.691V248ZM439.851 243.54L442.871 238.66V243.54H439.851Z" fill="white"/>
<path d="M431.32 298.18C433.98 298.18 435.96 296.64 435.96 294.26C435.96 292.66 435.1 291.52 433.78 290.92V290.86C434.9 290.2 435.56 289.1 435.56 287.78C435.56 285.44 433.58 284.1 431.14 284.1C429.12 284.1 427.54 285.12 426.9 286.54L429.08 287.72C429.48 287.02 430.06 286.56 431.08 286.56C432.08 286.56 432.88 287.24 432.88 288.22C432.88 289.1 432.34 289.84 431.12 289.84H429.92V292.04H430.88C432.4 292.04 433.16 292.9 433.16 293.9C433.16 295.02 432.24 295.72 431.12 295.72C429.88 295.72 429.12 295.14 428.74 294.16L426.4 295.14C427.06 296.88 428.88 298.18 431.32 298.18ZM443.12 298.18C446.46 298.18 448.48 295.34 448.48 291.14C448.48 286.68 446.3 284.1 443.12 284.1C439.8 284.1 437.76 286.94 437.76 291.14C437.76 295.58 439.94 298.18 443.12 298.18ZM443.12 295.64C441.52 295.64 440.54 293.9 440.54 291.14C440.54 288.22 441.54 286.62 443.12 286.62C444.76 286.62 445.7 288.34 445.7 291.14C445.7 294.06 444.72 295.64 443.12 295.64Z" fill="white"/>
<path d="M507.4 41.26V43.72H512.96L508.46 54.8L511.18 55.3L515.96 43.04V41.26H507.4Z" fill="white"/>
<path d="M510.84 140H513.58V126.26H511.4L507.26 129.24L508.54 131.26L510.84 129.52V140ZM520.484 140.18C523.144 140.18 525.124 138.64 525.124 136.26C525.124 134.66 524.264 133.52 522.944 132.92V132.86C524.064 132.2 524.724 131.1 524.724 129.78C524.724 127.44 522.744 126.1 520.304 126.1C518.284 126.1 516.704 127.12 516.064 128.54L518.244 129.72C518.644 129.02 519.224 128.56 520.244 128.56C521.244 128.56 522.044 129.24 522.044 130.22C522.044 131.1 521.504 131.84 520.284 131.84H519.084V134.04H520.044C521.564 134.04 522.324 134.9 522.324 135.9C522.324 137.02 521.404 137.72 520.284 137.72C519.044 137.72 518.284 137.14 517.904 136.16L515.564 137.14C516.224 138.88 518.044 140.18 520.484 140.18Z" fill="white"/>
<path d="M510.84 194H513.58V180.26H511.4L507.26 183.24L508.54 185.26L510.84 183.52V194ZM520.864 180.1C518.084 180.1 515.924 181.96 515.924 184.66C515.924 187.48 517.844 189.1 520.124 189.1C521.024 189.1 521.924 188.88 522.664 188.46L522.684 188.48C521.864 190.46 520.164 191.62 517.684 192.3L518.504 194.5C522.804 193.68 525.824 190.14 525.824 185.62C525.824 182.32 523.724 180.1 520.864 180.1ZM518.604 184.72C518.604 183.54 519.504 182.56 520.904 182.56C522.244 182.56 523.224 183.68 523.224 185.38V185.58C522.664 186.26 521.784 186.8 520.844 186.8C519.464 186.8 518.604 185.94 518.604 184.72Z" fill="white"/>
<path d="M507.76 248H516.7V245.54H511.76L511.74 245.48L514.3 242.8C516.08 240.96 516.58 239.74 516.58 238.18C516.58 235.64 514.5 234.12 512.2 234.12C509.9 234.12 508.46 235.26 507.66 236.72L509.6 238.1C510.2 237.1 511.02 236.64 512 236.64C513.06 236.64 513.82 237.44 513.82 238.5C513.82 239.6 513.1 240.52 511.98 241.68L507.72 246.22L507.76 248ZM523.466 239.14C523.006 239.14 522.386 239.24 521.766 239.42L521.926 236.74H527.046V234.26H519.526L519.106 241.54L520.566 242.06C521.226 241.54 521.886 241.36 522.646 241.36C523.746 241.36 524.986 242.08 524.986 243.52C524.986 244.76 524.046 245.7 522.586 245.7C521.486 245.7 520.586 245.18 520.046 244.44L518.086 246C519.246 247.44 520.966 248.18 522.846 248.18C525.746 248.18 527.746 246.28 527.746 243.56C527.746 240.82 525.806 239.14 523.466 239.14Z" fill="white"/>
<path d="M519.84 298H522.58V284.26H520.4L516.26 287.24L517.54 289.26L519.84 287.52V298Z" fill="#212121"/>
<path d="M8.144 92H8.833L14.488 84.057H14.501V92H15.242V82.77H14.579L8.898 90.752H8.885V82.77H8.144V92ZM24.6108 82.705C22.0628 82.705 20.2558 84.603 20.2038 87.294H18.2408V82.77H17.4998V92H18.2408V87.97H20.2298C20.4638 90.349 22.2058 92.065 24.6108 92.065C27.2628 92.065 29.0568 90.115 29.0568 87.372C29.0568 84.629 27.2628 82.705 24.6108 82.705ZM24.6108 91.363C22.4918 91.363 20.9708 89.647 20.9708 87.424C20.9708 85.097 22.4918 83.407 24.6108 83.407C26.8078 83.407 28.2898 85.071 28.2898 87.372C28.2898 89.686 26.8078 91.363 24.6108 91.363ZM30.9067 92H31.6477V87.97H37.0687V92H37.8097V82.77H37.0687V87.294H31.6477V82.77H30.9067V92ZM39.6171 92H40.4881L42.8801 88.334H45.3761V92H46.1171V82.77H42.8931C40.8521 82.77 39.8511 83.875 39.8511 85.539C39.8511 87.086 40.7351 87.944 42.1001 88.217L39.6171 92ZM43.1661 87.645C41.3461 87.645 40.6181 86.761 40.6181 85.526C40.6181 84.122 41.5411 83.446 42.9581 83.446H45.3761V87.645H43.1661Z" fill="white"/>
<circle cx="517" cy="205" r="4" fill="#DE131E"/>
<circle cx="275" cy="258" r="4" fill="#DE131E"/>
<circle cx="517" cy="192" r="26" stroke="#DE131E" stroke-width="2"/>
</svg>
