<svg width="49" height="25" viewBox="0 0 49 25" fill="none" xmlns="http://www.w3.org/2000/svg">
<g filter="url(#filter0_d_1_1381)">
<path d="M4.155 16H6.24V12.355H7.455L9.84 16H12.345L9.675 12.1C11.145 11.62 11.895 10.51 11.895 8.89C11.895 6.85 10.755 5.35 8.19 5.35H4.155V16ZM6.24 10.495V7.225H7.86C9.075 7.225 9.72 7.87 9.72 8.86C9.72 9.835 9.06 10.495 7.77 10.495H6.24ZM17.8904 16.135C20.6204 16.135 22.2254 14.365 22.2254 11.59V5.35H20.1104V11.455C20.1104 13.15 19.1804 14.155 17.8904 14.155C16.4804 14.155 15.7004 12.985 15.7004 11.455V5.35H13.5854V11.59C13.5854 14.5 15.3254 16.135 17.8904 16.135Z" fill="white"/>
</g>
<g clip-path="url(#clip0_1_1381)" filter="url(#filter1_d_1_1381)">
<path d="M31.5 8.75L36 13.25L40.5 8.75" stroke="#8E8E8E" stroke-width="2" stroke-linecap="round" stroke-linejoin="round"/>
</g>
<defs>
<filter id="filter0_d_1_1381" x="0.154999" y="5.3501" width="26.0704" height="18.7847" filterUnits="userSpaceOnUse" color-interpolation-filters="sRGB">
<feFlood flood-opacity="0" result="BackgroundImageFix"/>
<feColorMatrix in="SourceAlpha" type="matrix" values="0 0 0 0 0 0 0 0 0 0 0 0 0 0 0 0 0 0 127 0" result="hardAlpha"/>
<feOffset dy="4"/>
<feGaussianBlur stdDeviation="2"/>
<feComposite in2="hardAlpha" operator="out"/>
<feColorMatrix type="matrix" values="0 0 0 0 0 0 0 0 0 0 0 0 0 0 0 0 0 0 0.25 0"/>
<feBlend mode="normal" in2="BackgroundImageFix" result="effect1_dropShadow_1_1381"/>
<feBlend mode="normal" in="SourceGraphic" in2="effect1_dropShadow_1_1381" result="shape"/>
</filter>
<filter id="filter1_d_1_1381" x="27" y="1" width="26" height="26" filterUnits="userSpaceOnUse" color-interpolation-filters="sRGB">
<feFlood flood-opacity="0" result="BackgroundImageFix"/>
<feColorMatrix in="SourceAlpha" type="matrix" values="0 0 0 0 0 0 0 0 0 0 0 0 0 0 0 0 0 0 127 0" result="hardAlpha"/>
<feOffset dy="4"/>
<feGaussianBlur stdDeviation="2"/>
<feComposite in2="hardAlpha" operator="out"/>
<feColorMatrix type="matrix" values="0 0 0 0 0 0 0 0 0 0 0 0 0 0 0 0 0 0 0.25 0"/>
<feBlend mode="normal" in2="BackgroundImageFix" result="effect1_dropShadow_1_1381"/>
<feBlend mode="normal" in="SourceGraphic" in2="effect1_dropShadow_1_1381" result="shape"/>
</filter>
<clipPath id="clip0_1_1381">
<rect width="18" height="18" fill="white" transform="translate(31 1)"/>
</clipPath>
</defs>
</svg>
