<svg width="15" height="14" viewBox="0 0 15 14" fill="none" xmlns="http://www.w3.org/2000/svg">
<path d="M11.4383 13.8753C11.325 13.8758 11.2133 13.849 11.1125 13.7974L7.49995 11.9061L3.88745 13.7974C3.77015 13.8591 3.63789 13.8866 3.50572 13.8769C3.37354 13.8671 3.24675 13.8205 3.13976 13.7423C3.03276 13.6641 2.94986 13.5574 2.90047 13.4344C2.85108 13.3114 2.83719 13.177 2.86037 13.0466L3.5687 9.05864L0.650371 6.22531C0.55932 6.13445 0.49473 6.02051 0.463532 5.89572C0.432334 5.77092 0.435707 5.63999 0.473287 5.51697C0.514342 5.39108 0.589862 5.27922 0.691277 5.19409C0.792692 5.10895 0.915941 5.05394 1.04704 5.03531L5.08454 4.44739L6.86245 0.81364C6.92046 0.693882 7.01102 0.592883 7.12377 0.522213C7.23651 0.451544 7.36689 0.414062 7.49995 0.414062C7.63302 0.414062 7.76339 0.451544 7.87614 0.522213C7.98889 0.592883 8.07945 0.693882 8.13745 0.81364L9.93662 4.44031L13.9741 5.02822C14.1052 5.04686 14.2285 5.10186 14.3299 5.187C14.4313 5.27214 14.5068 5.384 14.5479 5.50989C14.5855 5.63291 14.5888 5.76384 14.5576 5.88863C14.5264 6.01342 14.4618 6.12736 14.3708 6.21822L11.4525 9.05156L12.1608 13.0395C12.1861 13.1723 12.1728 13.3095 12.1226 13.435C12.0724 13.5606 11.9874 13.6691 11.8775 13.7478C11.7492 13.8377 11.5947 13.8825 11.4383 13.8753Z" fill="#232323"/>
</svg>
